<svg xmlns="http://www.w3.org/2000/svg" xmlns:xlink="http://www.w3.org/1999/xlink" version="1.1" style="enable-background:new 0 0 52.3 20.9;" xml:space="preserve" width="52" height="21"><rect id="backgroundrect" width="100%" height="100%" x="0" y="0" fill="none" stroke="none"/>

    <g class="currentLayer" style=""><title>Layer 1</title><g id="svg_1" class="selected" fill="#ffffff" fill-opacity="1">
	<path d="M10.537829376757145,0.1176914483308793 c-0.6000000000000003,-0.30000000000000016 -1.4,0 -1.6,0.6000000000000003 L0.13782937675714496,19.11769144833088 c-0.30000000000000016,0.6000000000000003 -0.1,1.3 0.5,1.6 c0.2,0.1 0.4,0.1 0.5,0.1 c0.4,0 0.9,-0.2 1.1,-0.7000000000000003 L11.037829376757145,1.7176914483308798 C11.337829376757146,1.1176914483308795 11.137829376757145,0.4176914483308793 10.537829376757145,0.1176914483308793 z" id="svg_2" fill="#ffffff" fill-opacity="1"/>
        <path d="M41.33782937675714,4.217691448330879 c-0.6000000000000003,-0.30000000000000016 -1.3,0 -1.6,0.6000000000000003 l-6.3,13.3 c-0.1,0.2 -0.2,0.30000000000000016 -0.30000000000000016,0.4 c-0.1,0 -0.2,-0.1 -0.30000000000000016,-0.30000000000000016 l-1.9,-4 c-0.6000000000000003,-1 -1.4,-1.5 -2.4,-1.5 c-0.9,0 -1.8,0.7000000000000003 -2.3,1.7000000000000002 l-1.7000000000000002,3.7 c-0.1,0.1 -0.1,0.2 -0.2,0.30000000000000016 c0,-0.1 -0.1,-0.2 -0.1,-0.30000000000000016 l-3,-6.2 c-0.30000000000000016,-0.6000000000000003 -1,-0.8 -1.6,-0.5 s-0.8,1 -0.5,1.6 l3,6.3 c0.5,1.1 1.4,1.6 2.3,1.6 l0,0 c0.9,0 1.8,-0.5 2.3,-1.6 l1.7000000000000002,-3.8 c0.1,-0.30000000000000016 0.30000000000000016,-0.4 0.30000000000000016,-0.4 s0.1,0.1 0.30000000000000016,0.4 l1.9,4 c0.6000000000000003,0.9 1.4,1.5 2.3,1.5 h0.1 c0.9,-0.1 1.8,-0.7000000000000003 2.3,-1.7000000000000002 L41.93782937675714,6.017691448330879 C42.137829376757146,5.217691448330879 41.93782937675714,4.517691448330879 41.33782937675714,4.217691448330879 z" id="svg_3" fill="#ffffff" fill-opacity="1"/>
        <path d="M52.137829376757146,19.11769144833088 L43.43782937675714,0.7176914483308797 c-0.30000000000000016,-0.6000000000000003 -1,-0.8 -1.6,-0.5 s-0.8,1 -0.5,1.6 L50.037829376757145,20.21769144833088 c0.2,0.4 0.6000000000000003,0.7000000000000003 1.1,0.7000000000000003 c0.2,0 0.4,0 0.5,-0.1 C52.23782937675715,20.417691448330878 52.43782937675714,19.717691448330882 52.137829376757146,19.11769144833088 z" id="svg_4" fill="#ffffff" fill-opacity="1"/>
        <path d="M22.637829376757146,2.517691448330879 c0.1,0.1 0.1,0.1 0.2,0.30000000000000016 l4.1,8.6 c0.30000000000000016,0.6000000000000003 1.1,0.7000000000000003 1.7000000000000002,0.4 s0.7000000000000003,-1.1 0.4,-1.7000000000000002 l-4.1,-8.6 c-0.6000000000000003,-1 -1.5,-1.5 -2.4,-1.5 c-0.9,0.1 -1.7000000000000002,0.7000000000000003 -2.2,1.8 l-7.7,16.3 c-0.1,0.1 -0.1,0.2 -0.1,0.30000000000000016 c0,-0.1 -0.1,-0.1 -0.2,-0.30000000000000016 l-3,-6.2 c-0.30000000000000016,-0.6000000000000003 -1.1,-0.8 -1.6,-0.5 C7.037829376757145,11.717691448330879 6.837829376757145,12.517691448330881 7.137829376757145,13.01769144833088 l3,6.2 c0.6000000000000003,1 1.4,1.6 2.3,1.6 h0.1 c0.9,0 1.7000000000000002,-0.7000000000000003 2.2,-1.8 l7.7,-16.3 C22.537829376757145,2.6176914483308797 22.537829376757145,2.517691448330879 22.637829376757146,2.517691448330879 z" id="svg_5" fill="#ffffff" fill-opacity="1"/>
        <path d="M46.037829376757145,14.217691448330879 c-0.6000000000000003,-0.30000000000000016 -1.3,-0.1 -1.6,0.5 l-1.6,3.4 c-0.1,0.2 -0.2,0.30000000000000016 -0.2,0.30000000000000016 c-0.1,0 -0.1,-0.1 -0.2,-0.30000000000000016 l-1.6,-3.4 c-0.30000000000000016,-0.6000000000000003 -1,-0.8 -1.6,-0.5 s-0.8,1 -0.5,1.6 l1.6,3.4 c0.6000000000000003,1 1.4,1.6 2.3,1.6 c0.9,0 1.8,-0.6000000000000003 2.3,-1.6 l1.6,-3.4 C46.83782937675714,15.217691448330879 46.637829376757146,14.517691448330881 46.037829376757145,14.217691448330879 z" id="svg_6" fill="#ffffff" fill-opacity="1"/>
</g></g></svg>

